<svg width="115" height="16" viewBox="0 0 115 16" fill="none" xmlns="http://www.w3.org/2000/svg">
<path fill-rule="evenodd" clip-rule="evenodd" d="M17.7466 1.02086L17.5109 0L16.8655 0.825337L6.62344 13.9232L0.889967 2.73389L0 3.18992L6.09031 15.0756L6.44715 15.772L6.92917 15.1556L17.0079 2.26667L19.9383 14.9601L20.174 15.981L20.8194 15.1556L30.9108 2.25037L33.8303 14.0534L34.0667 15.0091L34.6989 14.2544L44.7784 2.22388L47.7186 14.9601L47.9543 15.981L48.5997 15.1556L58.6784 2.26667L61.6088 14.9601L61.8445 15.981L62.4899 15.1556L72.5686 2.26667L75.499 14.9601L75.7347 15.981L76.3801 15.1556L86.4588 2.26666L89.3892 14.9601L89.6249 15.981L90.2703 15.1556L100.349 2.26667L103.279 14.9601L103.515 15.981L104.16 15.1556L114.885 1.44133L114.097 0.825337L104.018 13.7143L101.088 1.02086L100.852 0L100.207 0.825337L90.1279 13.7143L87.1975 1.02086L86.9618 0L86.3164 0.825337L76.2377 13.7143L73.3073 1.02086L73.0717 0L72.4263 0.825337L62.3475 13.7143L59.4171 1.02086L59.1815 0L58.5361 0.825337L48.4573 13.7143L45.527 1.02086L45.3012 0.042789L44.6565 0.812228L34.5646 12.8576L31.635 1.01328L31.3884 0.0162936L30.7557 0.825337L20.677 13.7143L17.7466 1.02086Z" fill="white"/>
</svg>
