<svg width="325" height="10" viewBox="0 0 325 10" fill="none" xmlns="http://www.w3.org/2000/svg">
<path fill-rule="evenodd" clip-rule="evenodd" d="M208.755 1.9002C207.376 0.307438 205.209 -0.357663 203.174 0.187587L172.417 8.42843C170.116 9.04504 167.825 7.40443 167.668 5.02715C167.469 2.02087 164.572 -0.0538255 161.662 0.725929L132.947 8.41982C130.629 9.04088 128.322 7.38841 128.163 4.99395C127.965 1.99498 125.094 -0.0884851 122.181 0.652905L93.1528 8.04186C90.9721 8.59692 88.8212 7.04168 88.6649 4.79694C88.4637 1.9064 85.6758 -0.0829416 82.8769 0.66697L54.0237 8.39789C51.6633 9.03031 49.3138 7.34764 49.1525 4.90941C48.9555 1.93024 46.1516 -0.173954 43.2361 0.46939L6.7193 8.52721C4.04172 9.11805 1.46268 7.19727 1.26175 4.46265L0.997314 0.863507L0 0.936781L0.264435 4.53592C0.51001 7.87824 3.66217 10.2259 6.93478 9.50372L43.4516 1.4459C45.7692 0.934487 47.9981 2.60717 48.1547 4.97539C48.3575 8.04262 51.3133 10.1594 54.2824 9.36382L83.1357 1.6329C85.327 1.04577 87.5098 2.60328 87.6673 4.86638C87.8669 7.73348 90.6142 9.71991 93.3994 9.01096L122.428 1.622C124.735 1.03485 127.008 2.68487 127.165 5.05993C127.365 8.0834 130.279 10.17 133.206 9.38575L161.921 1.69186C164.222 1.07525 166.513 2.71586 166.67 5.09313C166.869 8.09942 169.766 10.1741 172.676 9.39436L203.433 1.15352C205.098 0.707402 206.871 1.25157 207.999 2.55474L212.749 8.04037C214.215 9.73392 216.562 10.369 218.682 9.64604L240.89 2.07307C243.152 1.30178 245.529 2.88704 245.687 5.27156C245.88 8.18548 248.688 10.1964 251.508 9.44064L280.46 1.68328C282.745 1.07111 285.02 2.6999 285.176 5.06005C285.375 8.07335 288.297 10.139 291.204 9.32107L312.639 3.29049C313.372 3.08444 314.144 3.06744 314.885 3.24109L324.721 5.54695L324.949 4.57334L315.113 2.26748C314.208 2.05525 313.263 2.07602 312.368 2.32787L290.934 8.35845C288.638 9.00422 286.331 7.37328 286.173 4.99406C285.976 2.00491 283.095 -0.0579644 280.202 0.717347L251.25 8.47471C249.038 9.06736 246.836 7.4905 246.685 5.20558C246.484 2.16463 243.452 0.142973 240.567 1.12659L218.359 8.69955C216.624 9.29109 214.704 8.77146 213.505 7.38583L208.755 1.9002Z" fill="white"/>
</svg>
