<svg width="150" height="152" viewBox="0 0 150 152" fill="none" xmlns="http://www.w3.org/2000/svg">
<path d="M145.812 49.5166C146.065 49.6273 146.36 49.512 146.471 49.2591L148.275 45.1368C148.386 44.8838 148.271 44.589 148.018 44.4783C147.765 44.3675 147.47 44.4828 147.359 44.7358L145.755 48.4L142.091 46.7959C141.838 46.6851 141.543 46.8004 141.432 47.0534C141.322 47.3063 141.437 47.6012 141.69 47.7119L145.812 49.5166ZM112.309 10.6569L112.068 11.095L112.068 11.095L112.309 10.6569ZM61.8295 2.75434L61.7339 2.26355L61.7339 2.26355L61.8295 2.75434ZM18.0023 29.0187L18.39 29.3344L18.39 29.3344L18.0023 29.0187ZM1.16826 77.2603L1.66822 77.2544L1.66822 77.2544L1.16826 77.2603ZM19.1403 125.089L18.7602 125.414L19.1403 125.089ZM63.5774 150.308L63.6613 149.815L63.6613 149.815L63.5774 150.308ZM113.856 141.212L114.107 141.644L114.107 141.644L113.856 141.212ZM147.093 101.811C146.977 101.561 146.679 101.453 146.429 101.569L142.35 103.471C142.1 103.588 141.992 103.885 142.109 104.136C142.225 104.386 142.523 104.494 142.773 104.378L146.398 102.687L148.089 106.312C148.206 106.562 148.503 106.671 148.753 106.554C149.004 106.437 149.112 106.14 148.995 105.89L147.093 101.811ZM146.478 48.8765C140.042 32.4167 128.036 18.7364 112.55 10.2188L112.068 11.095C127.348 19.4998 139.196 32.9989 145.547 49.2407L146.478 48.8765ZM112.55 10.2188C97.0645 1.7011 79.0816 -1.1141 61.7339 2.26355L61.925 3.24512C79.043 -0.0877976 96.7877 2.69011 112.068 11.095L112.55 10.2188ZM61.7339 2.26355C44.3862 5.64121 28.7732 14.9977 17.6145 28.703L18.39 29.3344C29.4008 15.8106 44.8071 6.57805 61.925 3.24512L61.7339 2.26355ZM17.6145 28.703C6.45592 42.4084 0.45895 59.594 0.668294 77.2662L1.66822 77.2544C1.46165 59.8162 7.37919 42.8582 18.39 29.3344L17.6145 28.703ZM0.668294 77.2662C0.877638 94.9384 7.28003 111.977 18.7602 125.414L19.5205 124.765C8.19238 111.506 1.8748 94.6925 1.66822 77.2544L0.668294 77.2662ZM18.7602 125.414C30.2403 138.851 46.0706 147.835 63.4935 150.801L63.6613 149.815C46.4692 146.889 30.8486 138.024 19.5205 124.765L18.7602 125.414ZM63.4935 150.801C80.9163 153.767 98.8275 150.526 114.107 141.644L113.604 140.78C98.5273 149.544 80.8534 152.742 63.6613 149.815L63.4935 150.801ZM114.107 141.644C129.386 132.762 141.065 118.801 147.11 102.194L146.17 101.852C140.206 118.239 128.681 132.015 113.604 140.78L114.107 141.644Z" fill="#D9D9D9"/>
</svg>
