<svg width="323" height="363" viewBox="0 0 323 363" fill="none" xmlns="http://www.w3.org/2000/svg">
<path d="M234.129 39.0641C282.854 57.3836 310.989 113.408 319.624 175.032C328.256 236.639 317.358 303.595 288.286 343.549C275.985 360.452 253.596 364.953 233.133 360.028C195.277 350.916 170.561 338.71 152.973 324.089C135.387 309.47 124.89 292.407 115.514 273.51C112.572 267.579 109.74 261.469 106.835 255.199C91.2209 221.499 73.4759 183.202 24.9174 143.593C18.6148 138.452 12.69 132.685 8.33088 125.876C7.62643 124.776 6.9411 123.682 6.27449 122.594C-2.77533 107.829 -0.0987034 91.0057 10.058 74.5855C20.2172 58.1612 37.8189 42.2255 58.4173 29.3669C79.0116 16.5107 102.562 6.75547 124.582 2.66444C146.617 -1.4292 167.035 0.162563 181.451 9.88388C188.761 14.8132 197.126 20.3653 206.785 26.6305C214.742 31.7913 223.74 35.1667 232.569 38.4784C233.089 38.6737 233.609 38.8688 234.129 39.0641Z" stroke="#333333"/>
</svg>
