<svg width="318" height="206" viewBox="0 0 318 206" fill="none" xmlns="http://www.w3.org/2000/svg">
<path fill-rule="evenodd" clip-rule="evenodd" d="M148.989 17.4417C168.014 10.5827 186.739 -2.27243 208.146 0.346828C227.825 2.75457 238.976 17.6299 247.12 29.4482C254.795 40.5858 242.005 55.6202 253.048 65.5067C266.988 77.986 302.019 75.7228 313.764 89.1111C323.84 100.596 313.48 115.476 308.048 128.202C302.597 140.971 293.894 153.055 281.884 163.79C269.773 174.615 258.079 192.437 237.479 191.277C207.703 189.601 195.245 153.737 165.859 157.26C136.523 160.778 146.825 200.302 118.132 205.587C97.3973 209.407 87.7695 185.783 77.5085 173.535C69.0511 163.44 67.2946 151.821 63.6732 140.584C60.9962 132.278 66.0164 122.641 58.8193 115.543C47.8618 104.736 22.7884 102.2 13.2423 90.8484C3.79279 79.6119 -7.1929 62.4435 6.29005 53.08C22.384 41.9034 53.1399 51.1246 76.0031 47.2633C88.8165 45.0993 99.6755 39.9914 110.868 35.4182C124.278 29.9388 135.133 22.4371 148.989 17.4417Z" fill="#242323" fill-opacity="0.21"/>
</svg>
