<svg xmlns="http://www.w3.org/2000/svg" xmlns:xlink="http://www.w3.org/1999/xlink" width="1920" zoomAndPan="magnify" viewBox="0 0 1440 809.999993" height="1080" preserveAspectRatio="xMidYMid meet" version="1.0"><defs><clipPath id="d035617a1d"><path d="M 570.296875 255.21875 L 870.296875 255.21875 L 870.296875 555.21875 L 570.296875 555.21875 Z M 570.296875 255.21875 " clip-rule="nonzero"/></clipPath><clipPath id="79a11f99c5"><path d="M 570.296875 350.46875 C 570.296875 346.566406 571.894531 342.964844 574.398438 340.464844 C 577 337.863281 580.5 336.261719 584.402344 336.261719 C 588.304688 336.261719 591.90625 337.863281 594.40625 340.464844 C 595.40625 341.464844 596.308594 342.566406 596.910156 343.867188 L 628.824219 343.867188 L 628.824219 335.660156 C 628.824219 329.558594 631.226562 324.15625 635.226562 320.152344 C 639.230469 316.152344 644.632812 313.75 650.734375 313.75 L 658.941406 313.75 L 658.941406 281.832031 C 657.640625 281.234375 656.539062 280.332031 655.539062 279.332031 C 652.9375 276.832031 651.335938 273.230469 651.335938 269.328125 C 651.335938 265.425781 652.9375 261.925781 655.539062 259.324219 C 658.039062 256.820312 661.640625 255.21875 665.542969 255.21875 C 669.445312 255.21875 672.949219 256.820312 675.449219 259.324219 C 678.050781 261.925781 679.652344 265.425781 679.652344 269.328125 C 679.652344 273.230469 678.050781 276.832031 675.449219 279.332031 C 674.449219 280.332031 673.347656 281.234375 672.046875 281.832031 L 672.046875 313.75 L 713.667969 313.75 L 713.667969 281.832031 C 712.46875 281.234375 711.265625 280.332031 710.265625 279.332031 C 707.765625 276.832031 706.164062 273.230469 706.164062 269.328125 C 706.164062 265.425781 707.765625 261.925781 710.265625 259.324219 C 712.867188 256.820312 716.371094 255.21875 720.273438 255.21875 C 724.171875 255.21875 727.675781 256.820312 730.277344 259.324219 C 732.878906 261.925781 734.378906 265.425781 734.378906 269.328125 C 734.378906 273.230469 732.878906 276.832031 730.277344 279.332031 C 729.277344 280.332031 728.175781 281.234375 726.875 281.832031 L 726.875 313.75 L 768.496094 313.75 L 768.496094 281.832031 C 767.195312 281.234375 766.09375 280.332031 765.09375 279.332031 C 762.492188 276.832031 760.992188 273.230469 760.992188 269.328125 C 760.992188 265.425781 762.492188 261.925781 765.09375 259.324219 C 767.59375 256.820312 771.199219 255.21875 775.097656 255.21875 C 779 255.21875 782.503906 256.820312 785.105469 259.324219 C 787.605469 261.925781 789.207031 265.425781 789.207031 269.328125 C 789.207031 273.230469 787.605469 276.832031 785.105469 279.332031 C 784.105469 280.332031 782.902344 281.234375 781.601562 281.832031 L 781.601562 313.75 L 789.90625 313.75 C 795.910156 313.75 801.414062 316.152344 805.316406 320.152344 C 809.316406 324.15625 811.816406 329.558594 811.816406 335.660156 L 811.816406 343.867188 L 843.632812 343.867188 C 844.335938 342.566406 845.136719 341.464844 846.136719 340.464844 C 848.738281 337.863281 852.238281 336.261719 856.140625 336.261719 C 860.042969 336.261719 863.542969 337.863281 866.144531 340.464844 C 868.746094 342.964844 870.246094 346.566406 870.246094 350.46875 C 870.246094 354.371094 868.746094 357.871094 866.144531 360.375 C 863.542969 362.976562 860.042969 364.574219 856.140625 364.574219 C 852.238281 364.574219 848.738281 362.976562 846.136719 360.375 C 845.136719 359.375 844.335938 358.273438 843.632812 356.972656 L 811.816406 356.972656 L 811.816406 398.59375 L 843.632812 398.59375 C 844.335938 397.394531 845.136719 396.191406 846.136719 395.191406 C 848.738281 392.691406 852.238281 391.089844 856.140625 391.089844 C 860.042969 391.089844 863.542969 392.691406 866.144531 395.191406 C 868.746094 397.792969 870.246094 401.292969 870.246094 405.195312 C 870.246094 409.097656 868.746094 412.601562 866.144531 415.203125 C 863.542969 417.804688 860.042969 419.304688 856.140625 419.304688 C 852.238281 419.304688 848.738281 417.804688 846.136719 415.203125 C 845.136719 414.199219 844.335938 413.101562 843.632812 411.800781 L 811.816406 411.800781 L 811.816406 453.421875 L 843.632812 453.421875 C 844.335938 452.121094 845.136719 451.019531 846.136719 450.019531 C 848.738281 447.417969 852.238281 445.917969 856.140625 445.917969 C 860.042969 445.917969 863.542969 447.417969 866.144531 450.019531 C 868.746094 452.519531 870.246094 456.121094 870.246094 460.023438 C 870.246094 463.925781 868.746094 467.429688 866.144531 470.03125 C 863.542969 472.53125 860.042969 474.132812 856.140625 474.132812 C 852.238281 474.132812 848.738281 472.53125 846.136719 470.03125 C 845.136719 469.027344 844.335938 467.828125 843.632812 466.527344 L 811.816406 466.527344 L 811.816406 474.832031 C 811.816406 480.835938 809.316406 486.335938 805.316406 490.238281 C 801.414062 494.242188 795.910156 496.742188 789.90625 496.742188 L 781.601562 496.742188 L 781.601562 528.558594 C 782.902344 529.257812 784.105469 530.058594 785.105469 531.058594 C 787.605469 533.660156 789.207031 537.164062 789.207031 541.066406 C 789.207031 544.96875 787.605469 548.46875 785.105469 551.070312 C 782.503906 553.671875 779 555.171875 775.097656 555.171875 C 771.199219 555.171875 767.59375 553.671875 765.09375 551.070312 C 762.492188 548.46875 760.992188 544.96875 760.992188 541.066406 C 760.992188 537.164062 762.492188 533.660156 765.09375 531.058594 C 766.09375 530.058594 767.195312 529.257812 768.496094 528.558594 L 768.496094 496.742188 L 726.875 496.742188 L 726.875 528.558594 C 728.175781 529.257812 729.277344 530.058594 730.277344 531.058594 C 732.878906 533.660156 734.378906 537.164062 734.378906 541.066406 C 734.378906 544.96875 732.878906 548.46875 730.277344 551.070312 C 727.675781 553.671875 724.171875 555.171875 720.273438 555.171875 C 716.371094 555.171875 712.867188 553.671875 710.265625 551.070312 C 707.765625 548.46875 706.164062 544.96875 706.164062 541.066406 C 706.164062 537.164062 707.765625 533.660156 710.265625 531.058594 C 711.265625 530.058594 712.46875 529.257812 713.667969 528.558594 L 713.667969 496.742188 L 672.046875 496.742188 L 672.046875 528.558594 C 673.347656 529.257812 674.449219 530.058594 675.449219 531.058594 C 678.050781 533.660156 679.652344 537.164062 679.652344 541.066406 C 679.652344 544.96875 678.050781 548.46875 675.449219 551.070312 C 672.949219 553.671875 669.445312 555.171875 665.542969 555.171875 C 661.640625 555.171875 658.039062 553.671875 655.539062 551.070312 C 652.9375 548.46875 651.335938 544.96875 651.335938 541.066406 C 651.335938 537.164062 652.9375 533.660156 655.539062 531.058594 C 656.539062 530.058594 657.640625 529.257812 658.941406 528.558594 L 658.941406 496.742188 L 650.734375 496.742188 C 644.632812 496.742188 639.230469 494.242188 635.226562 490.238281 C 631.226562 486.335938 628.824219 480.835938 628.824219 474.832031 L 628.824219 466.527344 L 596.910156 466.527344 C 596.308594 467.828125 595.40625 469.027344 594.40625 470.03125 C 591.90625 472.53125 588.304688 474.132812 584.402344 474.132812 C 580.5 474.132812 577 472.53125 574.398438 470.03125 C 571.894531 467.429688 570.296875 463.925781 570.296875 460.023438 C 570.296875 456.121094 571.894531 452.519531 574.398438 450.019531 C 577 447.417969 580.5 445.917969 584.402344 445.917969 C 588.304688 445.917969 591.90625 447.417969 594.40625 450.019531 C 595.40625 451.019531 596.308594 452.121094 596.910156 453.421875 L 628.824219 453.421875 L 628.824219 411.800781 L 596.910156 411.800781 C 596.308594 413.101562 595.40625 414.199219 594.40625 415.203125 C 591.90625 417.804688 588.304688 419.304688 584.402344 419.304688 C 580.5 419.304688 577 417.804688 574.398438 415.203125 C 571.894531 412.601562 570.296875 409.097656 570.296875 405.195312 C 570.296875 401.292969 571.894531 397.792969 574.398438 395.191406 C 577 392.691406 580.5 391.089844 584.402344 391.089844 C 588.304688 391.089844 591.90625 392.691406 594.40625 395.191406 C 595.40625 396.191406 596.308594 397.394531 596.910156 398.59375 L 628.824219 398.59375 L 628.824219 356.972656 L 596.910156 356.972656 C 596.308594 358.273438 595.40625 359.375 594.40625 360.375 C 591.90625 362.976562 588.304688 364.574219 584.402344 364.574219 C 580.5 364.574219 577 362.976562 574.398438 360.375 C 571.894531 357.871094 570.296875 354.371094 570.296875 350.46875 Z M 675.449219 343.867188 L 765.195312 343.867188 C 769.695312 343.867188 773.796875 345.667969 776.800781 348.667969 C 779.800781 351.667969 781.601562 355.773438 781.601562 360.375 L 781.601562 450.121094 C 781.601562 454.621094 779.800781 458.722656 776.800781 461.726562 C 773.796875 464.726562 769.695312 466.527344 765.195312 466.527344 L 675.449219 466.527344 C 670.847656 466.527344 666.746094 464.726562 663.742188 461.726562 C 660.742188 458.722656 658.941406 454.621094 658.941406 450.121094 L 658.941406 360.375 C 658.941406 355.773438 660.742188 351.667969 663.742188 348.667969 C 666.746094 345.667969 670.847656 343.867188 675.449219 343.867188 Z M 765.195312 356.972656 L 675.449219 356.972656 C 674.449219 356.972656 673.648438 357.371094 673.046875 357.972656 C 672.445312 358.574219 672.046875 359.375 672.046875 360.375 L 672.046875 450.121094 C 672.046875 451.019531 672.445312 451.820312 673.046875 452.421875 C 673.648438 453.019531 674.449219 453.421875 675.449219 453.421875 L 765.195312 453.421875 C 766.09375 453.421875 766.894531 453.019531 767.496094 452.421875 C 768.097656 451.820312 768.496094 451.019531 768.496094 450.121094 L 768.496094 429.308594 L 749.585938 429.308594 L 749.585938 416.203125 L 768.496094 416.203125 L 768.496094 394.292969 L 724.171875 394.292969 L 724.171875 381.085938 L 768.496094 381.085938 L 768.496094 360.375 C 768.496094 359.375 768.097656 358.574219 767.496094 357.972656 C 766.894531 357.371094 766.09375 356.972656 765.195312 356.972656 Z M 789.90625 326.855469 L 650.734375 326.855469 C 648.335938 326.855469 646.132812 327.855469 644.53125 329.457031 C 642.933594 331.058594 641.933594 333.261719 641.933594 335.660156 L 641.933594 474.832031 C 641.933594 477.234375 642.933594 479.335938 644.53125 480.933594 C 646.132812 482.535156 648.335938 483.535156 650.734375 483.535156 L 789.90625 483.535156 C 792.308594 483.535156 794.410156 482.535156 796.011719 480.933594 C 797.609375 479.335938 798.609375 477.234375 798.609375 474.832031 L 798.609375 335.660156 C 798.609375 333.261719 797.609375 331.058594 796.011719 329.457031 C 794.410156 327.855469 792.308594 326.855469 789.90625 326.855469 Z M 789.90625 326.855469 " clip-rule="evenodd"/></clipPath><linearGradient x1="-2.796823" gradientTransform="matrix(10.005077, 0, 0, 10.005077, 570.295411, 255.220478)" y1="9.07948" x2="33.019622" gradientUnits="userSpaceOnUse" y2="20.1123" id="32948c77db"><stop stop-opacity="1" stop-color="rgb(94.53125%, 63.62915%, 97.219849%)" offset="0"/><stop stop-opacity="1" stop-color="rgb(94.543457%, 63.769531%, 97.224426%)" offset="0.0078125"/><stop stop-opacity="1" stop-color="rgb(94.569397%, 64.053345%, 97.233582%)" offset="0.015625"/><stop stop-opacity="1" stop-color="rgb(94.595337%, 64.337158%, 97.244263%)" offset="0.0234375"/><stop stop-opacity="1" stop-color="rgb(94.621277%, 64.619446%, 97.253418%)" offset="0.03125"/><stop stop-opacity="1" stop-color="rgb(94.647217%, 64.903259%, 97.264099%)" offset="0.0390625"/><stop stop-opacity="1" stop-color="rgb(94.671631%, 65.185547%, 97.273254%)" offset="0.046875"/><stop stop-opacity="1" stop-color="rgb(94.697571%, 65.46936%, 97.283936%)" offset="0.0546875"/><stop stop-opacity="1" stop-color="rgb(94.723511%, 65.751648%, 97.293091%)" offset="0.0625"/><stop stop-opacity="1" stop-color="rgb(94.749451%, 66.035461%, 97.303772%)" offset="0.0703125"/><stop stop-opacity="1" stop-color="rgb(94.775391%, 66.317749%, 97.312927%)" offset="0.078125"/><stop stop-opacity="1" stop-color="rgb(94.801331%, 66.601562%, 97.323608%)" offset="0.0859375"/><stop stop-opacity="1" stop-color="rgb(94.827271%, 66.885376%, 97.332764%)" offset="0.09375"/><stop stop-opacity="1" stop-color="rgb(94.85321%, 67.167664%, 97.343445%)" offset="0.101563"/><stop stop-opacity="1" stop-color="rgb(94.87915%, 67.451477%, 97.3526%)" offset="0.109375"/><stop stop-opacity="1" stop-color="rgb(94.90509%, 67.733765%, 97.363281%)" offset="0.117187"/><stop stop-opacity="1" stop-color="rgb(94.93103%, 68.017578%, 97.372437%)" offset="0.125"/><stop stop-opacity="1" stop-color="rgb(94.955444%, 68.299866%, 97.383118%)" offset="0.132813"/><stop stop-opacity="1" stop-color="rgb(94.981384%, 68.583679%, 97.392273%)" offset="0.140625"/><stop stop-opacity="1" stop-color="rgb(95.007324%, 68.865967%, 97.402954%)" offset="0.148437"/><stop stop-opacity="1" stop-color="rgb(95.033264%, 69.14978%, 97.412109%)" offset="0.15625"/><stop stop-opacity="1" stop-color="rgb(95.059204%, 69.432068%, 97.422791%)" offset="0.164063"/><stop stop-opacity="1" stop-color="rgb(95.085144%, 69.715881%, 97.431946%)" offset="0.171875"/><stop stop-opacity="1" stop-color="rgb(95.111084%, 69.999695%, 97.442627%)" offset="0.179687"/><stop stop-opacity="1" stop-color="rgb(95.137024%, 70.281982%, 97.451782%)" offset="0.1875"/><stop stop-opacity="1" stop-color="rgb(95.162964%, 70.565796%, 97.462463%)" offset="0.195313"/><stop stop-opacity="1" stop-color="rgb(95.188904%, 70.848083%, 97.471619%)" offset="0.203125"/><stop stop-opacity="1" stop-color="rgb(95.214844%, 71.131897%, 97.4823%)" offset="0.210937"/><stop stop-opacity="1" stop-color="rgb(95.239258%, 71.414185%, 97.491455%)" offset="0.21875"/><stop stop-opacity="1" stop-color="rgb(95.265198%, 71.697998%, 97.502136%)" offset="0.226563"/><stop stop-opacity="1" stop-color="rgb(95.291138%, 71.980286%, 97.511292%)" offset="0.234375"/><stop stop-opacity="1" stop-color="rgb(95.317078%, 72.264099%, 97.521973%)" offset="0.235496"/><stop stop-opacity="1" stop-color="rgb(95.330811%, 72.406006%, 97.52655%)" offset="0.242187"/><stop stop-opacity="1" stop-color="rgb(95.343018%, 72.546387%, 97.531128%)" offset="0.25"/><stop stop-opacity="1" stop-color="rgb(95.368958%, 72.8302%, 97.541809%)" offset="0.257813"/><stop stop-opacity="1" stop-color="rgb(95.394897%, 73.114014%, 97.550964%)" offset="0.265625"/><stop stop-opacity="1" stop-color="rgb(95.420837%, 73.396301%, 97.561646%)" offset="0.273437"/><stop stop-opacity="1" stop-color="rgb(95.446777%, 73.680115%, 97.570801%)" offset="0.28125"/><stop stop-opacity="1" stop-color="rgb(95.472717%, 73.962402%, 97.581482%)" offset="0.289062"/><stop stop-opacity="1" stop-color="rgb(95.498657%, 74.246216%, 97.590637%)" offset="0.296875"/><stop stop-opacity="1" stop-color="rgb(95.523071%, 74.528503%, 97.601318%)" offset="0.304687"/><stop stop-opacity="1" stop-color="rgb(95.549011%, 74.812317%, 97.610474%)" offset="0.3125"/><stop stop-opacity="1" stop-color="rgb(95.574951%, 75.094604%, 97.621155%)" offset="0.320312"/><stop stop-opacity="1" stop-color="rgb(95.600891%, 75.378418%, 97.63031%)" offset="0.328125"/><stop stop-opacity="1" stop-color="rgb(95.626831%, 75.662231%, 97.640991%)" offset="0.335937"/><stop stop-opacity="1" stop-color="rgb(95.652771%, 75.944519%, 97.650146%)" offset="0.34375"/><stop stop-opacity="1" stop-color="rgb(95.678711%, 76.228333%, 97.660828%)" offset="0.351562"/><stop stop-opacity="1" stop-color="rgb(95.704651%, 76.51062%, 97.669983%)" offset="0.359375"/><stop stop-opacity="1" stop-color="rgb(95.730591%, 76.794434%, 97.680664%)" offset="0.367187"/><stop stop-opacity="1" stop-color="rgb(95.756531%, 77.076721%, 97.689819%)" offset="0.375"/><stop stop-opacity="1" stop-color="rgb(95.780945%, 77.360535%, 97.7005%)" offset="0.382812"/><stop stop-opacity="1" stop-color="rgb(95.806885%, 77.642822%, 97.709656%)" offset="0.390625"/><stop stop-opacity="1" stop-color="rgb(95.832825%, 77.926636%, 97.720337%)" offset="0.398437"/><stop stop-opacity="1" stop-color="rgb(95.858765%, 78.208923%, 97.729492%)" offset="0.40625"/><stop stop-opacity="1" stop-color="rgb(95.884705%, 78.492737%, 97.740173%)" offset="0.414062"/><stop stop-opacity="1" stop-color="rgb(95.910645%, 78.77655%, 97.749329%)" offset="0.421875"/><stop stop-opacity="1" stop-color="rgb(95.936584%, 79.058838%, 97.76001%)" offset="0.429687"/><stop stop-opacity="1" stop-color="rgb(95.962524%, 79.342651%, 97.769165%)" offset="0.4375"/><stop stop-opacity="1" stop-color="rgb(95.988464%, 79.624939%, 97.779846%)" offset="0.445312"/><stop stop-opacity="1" stop-color="rgb(96.014404%, 79.908752%, 97.789001%)" offset="0.453125"/><stop stop-opacity="1" stop-color="rgb(96.040344%, 80.19104%, 97.799683%)" offset="0.460937"/><stop stop-opacity="1" stop-color="rgb(96.064758%, 80.474854%, 97.808838%)" offset="0.46875"/><stop stop-opacity="1" stop-color="rgb(96.090698%, 80.757141%, 97.819519%)" offset="0.476562"/><stop stop-opacity="1" stop-color="rgb(96.116638%, 81.040955%, 97.828674%)" offset="0.484375"/><stop stop-opacity="1" stop-color="rgb(96.142578%, 81.323242%, 97.839355%)" offset="0.492187"/><stop stop-opacity="1" stop-color="rgb(96.168518%, 81.607056%, 97.848511%)" offset="0.5"/><stop stop-opacity="1" stop-color="rgb(96.194458%, 81.890869%, 97.859192%)" offset="0.507812"/><stop stop-opacity="1" stop-color="rgb(96.220398%, 82.173157%, 97.868347%)" offset="0.515625"/><stop stop-opacity="1" stop-color="rgb(96.246338%, 82.45697%, 97.879028%)" offset="0.523438"/><stop stop-opacity="1" stop-color="rgb(96.272278%, 82.739258%, 97.888184%)" offset="0.53125"/><stop stop-opacity="1" stop-color="rgb(96.298218%, 83.023071%, 97.898865%)" offset="0.539062"/><stop stop-opacity="1" stop-color="rgb(96.324158%, 83.305359%, 97.90802%)" offset="0.546875"/><stop stop-opacity="1" stop-color="rgb(96.348572%, 83.589172%, 97.918701%)" offset="0.554688"/><stop stop-opacity="1" stop-color="rgb(96.374512%, 83.87146%, 97.927856%)" offset="0.5625"/><stop stop-opacity="1" stop-color="rgb(96.400452%, 84.155273%, 97.938538%)" offset="0.570312"/><stop stop-opacity="1" stop-color="rgb(96.426392%, 84.437561%, 97.947693%)" offset="0.578125"/><stop stop-opacity="1" stop-color="rgb(96.452332%, 84.721375%, 97.958374%)" offset="0.585938"/><stop stop-opacity="1" stop-color="rgb(96.478271%, 85.005188%, 97.967529%)" offset="0.59375"/><stop stop-opacity="1" stop-color="rgb(96.504211%, 85.287476%, 97.97821%)" offset="0.601562"/><stop stop-opacity="1" stop-color="rgb(96.530151%, 85.571289%, 97.987366%)" offset="0.609375"/><stop stop-opacity="1" stop-color="rgb(96.556091%, 85.853577%, 97.998047%)" offset="0.617188"/><stop stop-opacity="1" stop-color="rgb(96.582031%, 86.13739%, 98.007202%)" offset="0.625"/><stop stop-opacity="1" stop-color="rgb(96.607971%, 86.419678%, 98.017883%)" offset="0.632812"/><stop stop-opacity="1" stop-color="rgb(96.632385%, 86.703491%, 98.027039%)" offset="0.640625"/><stop stop-opacity="1" stop-color="rgb(96.658325%, 86.985779%, 98.03772%)" offset="0.648438"/><stop stop-opacity="1" stop-color="rgb(96.684265%, 87.269592%, 98.046875%)" offset="0.65625"/><stop stop-opacity="1" stop-color="rgb(96.710205%, 87.553406%, 98.057556%)" offset="0.664062"/><stop stop-opacity="1" stop-color="rgb(96.736145%, 87.835693%, 98.066711%)" offset="0.671875"/><stop stop-opacity="1" stop-color="rgb(96.762085%, 88.119507%, 98.077393%)" offset="0.679688"/><stop stop-opacity="1" stop-color="rgb(96.788025%, 88.401794%, 98.086548%)" offset="0.6875"/><stop stop-opacity="1" stop-color="rgb(96.813965%, 88.685608%, 98.097229%)" offset="0.695312"/><stop stop-opacity="1" stop-color="rgb(96.839905%, 88.967896%, 98.106384%)" offset="0.703125"/><stop stop-opacity="1" stop-color="rgb(96.865845%, 89.251709%, 98.117065%)" offset="0.710938"/><stop stop-opacity="1" stop-color="rgb(96.891785%, 89.533997%, 98.126221%)" offset="0.71875"/><stop stop-opacity="1" stop-color="rgb(96.916199%, 89.81781%, 98.136902%)" offset="0.726562"/><stop stop-opacity="1" stop-color="rgb(96.942139%, 90.100098%, 98.146057%)" offset="0.734375"/><stop stop-opacity="1" stop-color="rgb(96.968079%, 90.383911%, 98.156738%)" offset="0.742188"/><stop stop-opacity="1" stop-color="rgb(96.994019%, 90.667725%, 98.165894%)" offset="0.75"/><stop stop-opacity="1" stop-color="rgb(97.019958%, 90.950012%, 98.176575%)" offset="0.757812"/><stop stop-opacity="1" stop-color="rgb(97.045898%, 91.233826%, 98.18573%)" offset="0.764504"/><stop stop-opacity="1" stop-color="rgb(97.059631%, 91.375732%, 98.191833%)" offset="0.765625"/><stop stop-opacity="1" stop-color="rgb(97.071838%, 91.516113%, 98.196411%)" offset="0.773438"/><stop stop-opacity="1" stop-color="rgb(97.097778%, 91.799927%, 98.205566%)" offset="0.78125"/><stop stop-opacity="1" stop-color="rgb(97.123718%, 92.082214%, 98.216248%)" offset="0.789062"/><stop stop-opacity="1" stop-color="rgb(97.149658%, 92.366028%, 98.225403%)" offset="0.796875"/><stop stop-opacity="1" stop-color="rgb(97.174072%, 92.648315%, 98.236084%)" offset="0.804688"/><stop stop-opacity="1" stop-color="rgb(97.200012%, 92.932129%, 98.245239%)" offset="0.8125"/><stop stop-opacity="1" stop-color="rgb(97.225952%, 93.214417%, 98.25592%)" offset="0.820312"/><stop stop-opacity="1" stop-color="rgb(97.251892%, 93.49823%, 98.265076%)" offset="0.828125"/><stop stop-opacity="1" stop-color="rgb(97.277832%, 93.782043%, 98.275757%)" offset="0.835938"/><stop stop-opacity="1" stop-color="rgb(97.303772%, 94.064331%, 98.284912%)" offset="0.84375"/><stop stop-opacity="1" stop-color="rgb(97.329712%, 94.348145%, 98.295593%)" offset="0.851562"/><stop stop-opacity="1" stop-color="rgb(97.355652%, 94.630432%, 98.304749%)" offset="0.859375"/><stop stop-opacity="1" stop-color="rgb(97.381592%, 94.914246%, 98.31543%)" offset="0.867188"/><stop stop-opacity="1" stop-color="rgb(97.407532%, 95.196533%, 98.324585%)" offset="0.875"/><stop stop-opacity="1" stop-color="rgb(97.433472%, 95.480347%, 98.335266%)" offset="0.882812"/><stop stop-opacity="1" stop-color="rgb(97.457886%, 95.762634%, 98.344421%)" offset="0.890625"/><stop stop-opacity="1" stop-color="rgb(97.483826%, 96.046448%, 98.355103%)" offset="0.898438"/><stop stop-opacity="1" stop-color="rgb(97.509766%, 96.328735%, 98.364258%)" offset="0.90625"/><stop stop-opacity="1" stop-color="rgb(97.535706%, 96.612549%, 98.374939%)" offset="0.914062"/><stop stop-opacity="1" stop-color="rgb(97.561646%, 96.896362%, 98.384094%)" offset="0.921875"/><stop stop-opacity="1" stop-color="rgb(97.587585%, 97.167969%, 98.394775%)" offset="0.9375"/><stop stop-opacity="1" stop-color="rgb(97.599792%, 97.299194%, 98.399353%)" offset="1"/></linearGradient></defs><g clip-path="url(#d035617a1d)"><g clip-path="url(#79a11f99c5)"><path fill="url(#32948c77db)" d="M 570.296875 255.21875 L 570.296875 555.171875 L 870.246094 555.171875 L 870.246094 255.21875 Z M 570.296875 255.21875 " fill-rule="nonzero"/></g></g></svg>