<svg width="101" height="102" viewBox="0 0 101 102" fill="none" xmlns="http://www.w3.org/2000/svg">
<path d="M2.97946 67.8725C2.72979 67.7545 2.43175 67.8613 2.31377 68.111L0.391231 72.1796C0.273254 72.4293 0.380015 72.7273 0.629687 72.8453C0.879359 72.9633 1.1774 72.8565 1.29537 72.6068L3.0043 68.9903L6.62087 70.6992C6.87054 70.8172 7.16858 70.7104 7.28655 70.4607C7.40453 70.2111 7.29777 69.913 7.0481 69.795L2.97946 67.8725ZM24.489 94.5616L24.7425 94.1307L24.7425 94.1307L24.489 94.5616ZM57.9765 100.796L57.8951 100.303L57.9765 100.796ZM87.6864 84.1346L87.3079 83.8078L87.3079 83.8078L87.6864 84.1346ZM99.8298 52.3097L99.3299 52.3013L99.8298 52.3097ZM88.7709 20.092L89.1602 19.7783L89.1602 19.7783L88.7709 20.092ZM59.6422 2.43414L59.5442 2.92443L59.5442 2.92443L59.6422 2.43414ZM2.9047 33.216C3.01415 33.4696 3.30841 33.5864 3.56193 33.4769L7.69333 31.6932C7.94685 31.5838 8.06364 31.2895 7.95419 31.036C7.84473 30.7825 7.55048 30.6657 7.29696 30.7751L3.6246 32.3606L2.03911 28.6883C1.92965 28.4347 1.6354 28.3179 1.38188 28.4274C1.12835 28.5369 1.01156 28.8311 1.12102 29.0846L2.9047 33.216ZM2.29513 68.4932C6.2816 79.622 14.0459 88.9997 24.2355 94.9926L24.7425 94.1307C14.7546 88.2564 7.14408 79.0644 3.23655 68.156L2.29513 68.4932ZM24.2355 94.9926C34.4252 100.986 46.3943 103.214 58.0579 101.289L57.8951 100.303C46.4625 102.189 34.7303 100.005 24.7425 94.1307L24.2355 94.9926ZM58.0579 101.289C69.7216 99.3651 80.3405 93.4099 88.0649 84.4613L87.3079 83.8078C79.7365 92.5792 69.3278 98.4165 57.8951 100.303L58.0579 101.289ZM88.0649 84.4613C95.7893 75.5127 100.13 64.1378 100.33 52.3182L99.3299 52.3013C99.1337 63.8868 94.8793 75.0364 87.3079 83.8078L88.0649 84.4613ZM100.33 52.3182C100.53 40.4986 96.5772 28.9833 89.1602 19.7783L88.3816 20.4058C95.6517 29.4285 99.5261 40.7157 99.3299 52.3013L100.33 52.3182ZM89.1602 19.7783C81.7433 10.5733 71.3321 4.26205 59.7403 1.94385L59.5442 2.92443C70.9064 5.19672 81.1115 11.383 88.3816 20.4058L89.1602 19.7783ZM59.7403 1.94385C48.1485 -0.374356 36.1108 1.44748 25.7241 7.09197L26.2016 7.97061C36.3826 2.43789 48.1819 0.652132 59.5442 2.92443L59.7403 1.94385ZM25.7241 7.09197C15.3374 12.7365 7.26 21.8459 2.89901 32.8334L3.82847 33.2023C8.10311 22.4324 16.0205 13.5033 26.2016 7.97061L25.7241 7.09197Z" fill="#D9D9D9"/>
</svg>
